<?xml version="1.0" encoding="UTF-8"?>
<svg xmlns="http://www.w3.org/2000/svg" xmlns:xlink="http://www.w3.org/1999/xlink" width="768" height="640" viewBox="0 0 768 640">
<rect x="-76.8" y="-64" width="921.6" height="768" fill="rgb(100%, 100%, 100%)" fill-opacity="1"/>
<path fill="none" stroke-width="0.1" stroke-linecap="butt" stroke-linejoin="miter" stroke="rgb(0%, 0%, 0%)" stroke-opacity="1" stroke-miterlimit="10" d="M 0 0.5 C 0 0.223846 0.223846 0 0.5 0 C 0.776154 0 1 0.223846 1 0.5 L 0 0.5 " transform="matrix(128, 0, 0, 128, 0, 0)"/>
<path fill="none" stroke-width="0.1" stroke-linecap="butt" stroke-linejoin="miter" stroke="rgb(0%, 0%, 0%)" stroke-opacity="1" stroke-miterlimit="10" d="M 0.5 0 C 0.776154 0 1 0.223846 1 0.5 C 1 0.776154 0.776154 1 0.5 1 M -0.0499878 0.5 L 1 0.5 " transform="matrix(128, 0, 0, 128, 128, 0)"/>
<path fill="none" stroke-width="0.1" stroke-linecap="butt" stroke-linejoin="miter" stroke="rgb(0%, 0%, 0%)" stroke-opacity="1" stroke-miterlimit="10" d="M 0.5 1 C 0.223846 1 0 0.776154 0 0.5 C 0 0.223846 0.223846 0 0.5 0 " transform="matrix(128, 0, 0, 128, 256, 0)"/>
<path fill="none" stroke-width="0.1" stroke-linecap="butt" stroke-linejoin="miter" stroke="rgb(0%, 0%, 0%)" stroke-opacity="1" stroke-miterlimit="10" d="M 0.5 0 C 0.776154 0 1 0.223846 1 0.5 C 1 0.776154 0.776154 1 0.5 1 L 0.5 0 " transform="matrix(128, 0, 0, 128, 384, 0)"/>
<path fill="none" stroke-width="0.1" stroke-linecap="butt" stroke-linejoin="miter" stroke="rgb(0%, 0%, 0%)" stroke-opacity="1" stroke-miterlimit="10" d="M 0.5 1 C 0.223846 1 0 0.776154 0 0.5 C 0 0.223846 0.223846 0 0.5 0 M 0 0.5 L 1.049988 0.5 " transform="matrix(128, 0, 0, 128, 512, 0)"/>
<path fill="none" stroke-width="0.1" stroke-linecap="butt" stroke-linejoin="miter" stroke="rgb(0%, 0%, 0%)" stroke-opacity="1" stroke-miterlimit="10" d="M 0 0.5 C 0 0.223846 0.223846 0 0.5 0 M 0 0.5 L 1.049988 0.5 " transform="matrix(128, 0, 0, 128, 640, 0)"/>
<path fill-rule="nonzero" fill="rgb(0%, 0%, 0%)" fill-opacity="1" d="M 633.601562 64 L 640 64 L 640 70.398438 L 633.601562 70.398438 Z M 633.601562 64 "/>
<path fill="none" stroke-width="0.1" stroke-linecap="butt" stroke-linejoin="miter" stroke="rgb(0%, 0%, 0%)" stroke-opacity="1" stroke-miterlimit="10" d="M 1 0.5 C 1 0.70224 0.878174 0.884552 0.691345 0.961945 C 0.504517 1.039337 0.289459 0.996552 0.146454 0.853546 C 0.00344849 0.710541 -0.0393372 0.495483 0.0380554 0.308655 C 0.115448 0.121826 0.29776 0 0.5 0 M 0.5 0.5 L 1 0.5 " transform="matrix(128, 0, 0, 128, 0, 128)"/>
<path fill-rule="nonzero" fill="rgb(0%, 0%, 0%)" fill-opacity="1" d="M 128 185.601562 L 134.398438 185.601562 L 134.398438 192 L 128 192 Z M 128 185.601562 "/>
<path fill="none" stroke-width="0.1" stroke-linecap="butt" stroke-linejoin="miter" stroke="rgb(0%, 0%, 0%)" stroke-opacity="1" stroke-miterlimit="10" d="M 0.146454 0.853546 C -0.0488281 0.658295 -0.0488281 0.341705 0.146454 0.146454 " transform="matrix(128, 0, 0, 128, 128, 128)"/>
<path fill="none" stroke-width="0.1" stroke-linecap="butt" stroke-linejoin="miter" stroke="rgb(0%, 0%, 0%)" stroke-opacity="1" stroke-miterlimit="10" d="M 0.853546 0.146454 C 1.048828 0.341705 1.048828 0.658295 0.853546 0.853546 M 0 0.5 L 1 0.5 " transform="matrix(128, 0, 0, 128, 128, 128)"/>
<path fill="none" stroke-width="0.1" stroke-linecap="butt" stroke-linejoin="miter" stroke="rgb(0%, 0%, 0%)" stroke-opacity="1" stroke-miterlimit="10" d="M 0.853546 0.853546 C 0.658295 1.048828 0.341705 1.048828 0.146454 0.853546 " transform="matrix(128, 0, 0, 128, 256, 128)"/>
<path fill="none" stroke-width="0.1" stroke-linecap="butt" stroke-linejoin="miter" stroke="rgb(0%, 0%, 0%)" stroke-opacity="1" stroke-miterlimit="10" d="M 0.146454 0.146454 C 0.341705 -0.0488281 0.658295 -0.0488281 0.853546 0.146454 M 0.5 0 L 0.5 1 " transform="matrix(128, 0, 0, 128, 256, 128)"/>
<path fill="none" stroke-width="0.1" stroke-linecap="butt" stroke-linejoin="miter" stroke="rgb(0%, 0%, 0%)" stroke-opacity="1" stroke-miterlimit="10" d="M 0.5 1 C 0.223846 1 0 0.776154 0 0.5 M 0.5 -0.0499878 L 0.5 1 " transform="matrix(128, 0, 0, 128, 384, 128)"/>
<path fill-rule="nonzero" fill="rgb(0%, 0%, 0%)" fill-opacity="1" d="M 448 256 L 454.398438 256 L 454.398438 262.398438 L 448 262.398438 Z M 448 256 "/>
<path fill="none" stroke-width="0.1" stroke-linecap="butt" stroke-linejoin="miter" stroke="rgb(0%, 0%, 0%)" stroke-opacity="1" stroke-miterlimit="10" d="M 0.853546 0.853546 C 0.710541 0.996552 0.495483 1.039337 0.308655 0.961945 C 0.121826 0.884552 0 0.70224 0 0.5 C 0 0.29776 0.121826 0.115448 0.308655 0.0380554 C 0.495483 -0.0393372 0.710541 0.00344849 0.853546 0.146454 M 1 0 L 0.5 0.5 L 1 1 " transform="matrix(128, 0, 0, 128, 512, 128)"/>
<path fill="none" stroke-width="0.1" stroke-linecap="butt" stroke-linejoin="miter" stroke="rgb(0%, 0%, 0%)" stroke-opacity="1" stroke-miterlimit="10" d="M 1 0.5 C 1 0.776154 0.776154 1 0.5 1 L 0.5 -0.0499878 " transform="matrix(128, 0, 0, 128, 640, 128)"/>
<path fill-rule="nonzero" fill="rgb(0%, 0%, 0%)" fill-opacity="1" d="M 704 256 L 710.398438 256 L 710.398438 262.398438 L 704 262.398438 Z M 704 256 "/>
<path fill="none" stroke-width="0.1" stroke-linecap="butt" stroke-linejoin="miter" stroke="rgb(0%, 0%, 0%)" stroke-opacity="1" stroke-miterlimit="10" d="M 0 0.5 C 0 0.223846 0.223846 0 0.5 0 C 0.776154 0 1 0.223846 1 0.5 M 0.5 0 L 0.5 0.5 " transform="matrix(128, 0, 0, 128, 0, 256)"/>
<path fill="none" stroke-width="0.1" stroke-linecap="butt" stroke-linejoin="miter" stroke="rgb(0%, 0%, 0%)" stroke-opacity="1" stroke-miterlimit="10" d="M 0 0.5 C 0 0.223846 0.223846 0 0.5 0 C 0.776154 0 1 0.223846 1 0.5 " transform="matrix(128, 0, 0, 128, 128, 256)"/>
<path fill="none" stroke-width="0.1" stroke-linecap="butt" stroke-linejoin="miter" stroke="rgb(0%, 0%, 0%)" stroke-opacity="1" stroke-miterlimit="10" d="M 0 0.5 C 0 0.223846 0.223846 0 0.5 0 C 0.776154 0 1 0.223846 1 0.5 M 0.0669861 0.25 L 0.933014 0.25 " transform="matrix(128, 0, 0, 128, 256, 256)"/>
<path fill="none" stroke-width="0.1" stroke-linecap="butt" stroke-linejoin="miter" stroke="rgb(0%, 0%, 0%)" stroke-opacity="1" stroke-miterlimit="10" d="M 1 0.5 C 1 0.776154 0.776154 1 0.5 1 C 0.223846 1 0 0.776154 0 0.5 C 0 0.223846 0.223846 0 0.5 0 C 0.776154 0 1 0.223846 1 0.5 " transform="matrix(128, 0, 0, 128, 384, 256)"/>
<path fill="none" stroke-width="0.1" stroke-linecap="butt" stroke-linejoin="miter" stroke="rgb(0%, 0%, 0%)" stroke-opacity="1" stroke-miterlimit="10" d="M 1 0.5 C 1 0.776154 0.776154 1 0.5 1 C 0.223846 1 0 0.776154 0 0.5 C 0 0.223846 0.223846 0 0.5 0 C 0.776154 0 1 0.223846 1 0.5 M 0.5 0 L 0 1 " transform="matrix(128, 0, 0, 128, 512, 256)"/>
<path fill="none" stroke-width="0.1" stroke-linecap="butt" stroke-linejoin="miter" stroke="rgb(0%, 0%, 0%)" stroke-opacity="1" stroke-miterlimit="10" d="M 1 0.5 C 1 0.776154 0.776154 1 0.5 1 C 0.223846 1 0 0.776154 0 0.5 C 0 0.223846 0.223846 0 0.5 0 C 0.776154 0 1 0.223846 1 0.5 M 0.5 0.5 L 1 1 " transform="matrix(128, 0, 0, 128, 640, 256)"/>
<path fill="none" stroke-width="0.1" stroke-linecap="butt" stroke-linejoin="miter" stroke="rgb(0%, 0%, 0%)" stroke-opacity="1" stroke-miterlimit="10" d="M 1 0.5 C 1 0.776154 0.776154 1 0.5 1 C 0.223846 1 0 0.776154 0 0.5 C 0 0.223846 0.223846 0 0.5 0 C 0.776154 0 1 0.223846 1 0.5 M 0 0.5 L 1 1 " transform="matrix(128, 0, 0, 128, 0, 384)"/>
<path fill="none" stroke-width="0.1" stroke-linecap="butt" stroke-linejoin="miter" stroke="rgb(0%, 0%, 0%)" stroke-opacity="1" stroke-miterlimit="10" d="M 1 0.5 C 1 0.776154 0.776154 1 0.5 1 " transform="matrix(128, 0, 0, 128, 128, 384)"/>
<path fill="none" stroke-width="0.1" stroke-linecap="butt" stroke-linejoin="miter" stroke="rgb(0%, 0%, 0%)" stroke-opacity="1" stroke-miterlimit="10" d="M 0 0.5 C 0 0.223846 0.223846 0 0.5 0 " transform="matrix(128, 0, 0, 128, 128, 384)"/>
<path fill="none" stroke-width="0.1" stroke-linecap="butt" stroke-linejoin="miter" stroke="rgb(0%, 0%, 0%)" stroke-opacity="1" stroke-miterlimit="10" d="M 0 0.5 L 1 0.5 " transform="matrix(128, 0, 0, 128, 128, 384)"/>
<path fill-rule="nonzero" fill="rgb(0%, 0%, 0%)" fill-opacity="1" d="M 121.601562 448 L 128 448 L 128 454.398438 L 121.601562 454.398438 Z M 256 441.601562 L 262.398438 441.601562 L 262.398438 448 L 256 448 Z M 256 441.601562 "/>
<path fill="none" stroke-width="0.1" stroke-linecap="butt" stroke-linejoin="miter" stroke="rgb(0%, 0%, 0%)" stroke-opacity="1" stroke-miterlimit="10" d="M 0 0.5 C 0 0.223846 0.223846 0 0.5 0 C 0.776154 0 1 0.223846 1 0.5 M 0.5 0 L 0.5 1.049988 " transform="matrix(128, 0, 0, 128, 256, 384)"/>
<path fill="none" stroke-width="0.1" stroke-linecap="butt" stroke-linejoin="miter" stroke="rgb(0%, 0%, 0%)" stroke-opacity="1" stroke-miterlimit="10" d="M 1 0.5 C 1 0.776154 0.776154 1 0.5 1 C 0.223846 1 0 0.776154 0 0.5 " transform="matrix(128, 0, 0, 128, 384, 384)"/>
<path fill="none" stroke-width="0.1" stroke-linecap="butt" stroke-linejoin="miter" stroke="rgb(0%, 0%, 0%)" stroke-opacity="1" stroke-miterlimit="10" d="M 0.5 1 C 0.223846 1 0 0.776154 0 0.5 M 0.5 1 L 0.5 0.5 L 1.049988 0.5 " transform="matrix(128, 0, 0, 128, 512, 384)"/>
<path fill-rule="nonzero" fill="rgb(0%, 0%, 0%)" fill-opacity="1" d="M 576 512 L 582.398438 512 L 582.398438 518.398438 L 576 518.398438 Z M 576 512 "/>
<path fill="none" stroke-width="0.1" stroke-linecap="butt" stroke-linejoin="miter" stroke="rgb(0%, 0%, 0%)" stroke-opacity="1" stroke-miterlimit="10" d="M 1 0.5 C 1 0.776154 0.776154 1 0.5 1 C 0.223846 1 0 0.776154 0 0.5 M 0.5 -0.0499878 L 0.5 1 " transform="matrix(128, 0, 0, 128, 640, 384)"/>
<path fill="none" stroke-width="0.1" stroke-linecap="butt" stroke-linejoin="miter" stroke="rgb(0%, 0%, 0%)" stroke-opacity="1" stroke-miterlimit="10" d="M 0.5 1 C 0.223846 1 0 0.776154 0 0.5 M 0 1 L 1 0 " transform="matrix(128, 0, 0, 128, 0, 512)"/>
<path fill="none" stroke-width="0.1" stroke-linecap="butt" stroke-linejoin="miter" stroke="rgb(0%, 0%, 0%)" stroke-opacity="1" stroke-miterlimit="10" d="M 0.853546 0.146454 C 0.996552 0.289459 1.039337 0.504517 0.961945 0.691345 C 0.884552 0.878174 0.70224 1 0.5 1 C 0.29776 1 0.115448 0.878174 0.0380554 0.691345 C -0.0393372 0.504517 0.00344849 0.289459 0.146454 0.146454 M 0 0 L 0.5 0.5 L 1 0 " transform="matrix(128, 0, 0, 128, 128, 512)"/>
<path fill="none" stroke-width="0.1" stroke-linecap="butt" stroke-linejoin="miter" stroke="rgb(0%, 0%, 0%)" stroke-opacity="1" stroke-miterlimit="10" d="M 0.5 1 C 0.223846 1 0 0.776154 0 0.5 L 1 0.5 " transform="matrix(128, 0, 0, 128, 256, 512)"/>
<path fill="none" stroke-width="0.1" stroke-linecap="butt" stroke-linejoin="miter" stroke="rgb(0%, 0%, 0%)" stroke-opacity="1" stroke-miterlimit="10" d="M 0.5 0 C 0.776154 0 1 0.223846 1 0.5 " transform="matrix(128, 0, 0, 128, 256, 512)"/>
<path fill-rule="nonzero" fill="rgb(0%, 0%, 0%)" fill-opacity="1" d="M 384 576 L 390.398438 576 L 390.398438 582.398438 L 384 582.398438 Z M 384 576 "/>
</svg>
